<svg version="1" xmlns="http://www.w3.org/2000/svg" width="814.667" height="620" viewBox="0 0 611 465"><path d="M18.6 1.6C17.2 3 17 8.5 17 47.9c0 33.4.3 45 1.2 45.9.9.9 19.2 1.2 76 1.2 41.1 0 74.8.2 74.8.5s-38 48.8-84.5 107.8L.1 310.5 0 339.2c0 24.8.2 28.9 1.6 30.2 1.4 1.4 12.7 1.6 110.1 1.6h108.5l-.7 2.7c-.3 1.6-6.5 21.3-13.7 44-12.1 38.3-12.9 41.4-11.6 44l1.3 2.8 62.6.3c49.8.2 62.9 0 63.7-1.1.6-.7 2.7-7.7 4.7-15.7 2-8 5.5-21 7.7-29s5.9-22.2 8.3-31.5l4.4-17h100.6l14.1 45.3c7.8 24.9 15 46.2 16 47.3 1.7 1.8 3.6 1.9 66.5 1.9 63.1 0 64.9-.1 65.9-1.9.5-1.1 1-3.3 1-4.9 0-3.8-130.7-393.1-132.8-395.5-1.4-1.6-6.4-1.7-78.4-1.7H323V32.1c0-25-.2-29.2-1.6-30.5C320 .2 304.9 0 170 0S20 .2 18.6 1.6zm263.6 174.2L250.6 276h-45.9c-36.4 0-45.7-.3-45.1-1.3 1.8-2.9 153.7-199.7 154-199.4.2.1-13.9 45.4-31.4 100.5zm122.2 25.6c6.3 18.7 11.9 37 22.3 72.8.5 1.7-1.4 1.8-30 1.8h-30.6l2-6.8c1.8-6.2 12.2-45 14.8-55.2.6-2.5 2.9-11.3 5-19.5 2.2-8.3 4.5-17.7 5.2-21l1.2-6 1.2 5.5c.6 3 4.6 15.8 8.9 28.4z"/></svg>
